<?xml version="1.0" encoding="UTF-8"?>
<!DOCTYPE svg  PUBLIC '-//W3C//DTD SVG 1.1//EN'  'http://www.w3.org/Graphics/SVG/1.1/DTD/svg11.dtd'>
<svg width="1707.1mm" height="1560.7mm" viewBox="0 0 1707.1 1560.7" xmlns="http://www.w3.org/2000/svg">
<path d="m1277.8 853.55c78.105 78.105 204.74 78.105 282.84 0 195.26-195.26 195.26-511.84 0-707.11s-511.84-195.26-707.11-0c-195.26-195.26-511.84-195.26-707.11-0s-195.26 511.84-0 707.11l707.11 707.11 353.55-353.55c78.105-78.105 78.105-204.74 0-282.84l-565.68-565.68c-78.105-78.105-204.74-78.105-282.84-0s-78.105 204.74 0 282.84 204.74 78.105 282.84 0l318.2 318.2c58.579 58.579 58.579 153.55 0 212.13s-153.55 58.579-212.13-0l-459.62-459.62c-117.16-117.16-117.16-307.11 0-424.26s307.11-117.16 424.26-0c78.105 78.105 204.74 78.105 282.84 0 117.16-117.16 307.11-117.16 424.26 0s117.16 307.11 0 424.26l-70.711-70.711c78.105-78.105 78.105-204.74 0-282.84s-204.74-78.105-282.84-0-78.105 204.74-0 282.84z" fill="#a4f110"/>
</svg>
