<?xml version="1.0" standalone="no"?>
<!DOCTYPE svg PUBLIC "-//W3C//DTD SVG 20010904//EN"
 "http://www.w3.org/TR/2001/REC-SVG-20010904/DTD/svg10.dtd">
<svg version="1.0" xmlns="http://www.w3.org/2000/svg"
 width="6452.000000pt" height="6452.000000pt" viewBox="0 0 6452.000000 6452.000000"
 preserveAspectRatio="xMidYMid meet">
<metadata>
Created by potrace 1.14, written by Peter Selinger 2001-2017
</metadata>
<g transform="translate(0.000000,6452.000000) scale(0.100000,-0.100000)"
fill="#000000" stroke="none">
<path d="M18358 61745 c-2 -2 -84 -6 -183 -10 -308 -12 -479 -21 -725 -41 -41
-3 -95 -7 -120 -9 -79 -6 -194 -16 -225 -20 -16 -2 -61 -7 -100 -10 -38 -4
-81 -8 -95 -10 -14 -2 -61 -7 -105 -11 -44 -3 -82 -8 -85 -9 -3 -2 -39 -6 -79
-10 -41 -4 -84 -9 -95 -11 -12 -3 -42 -6 -67 -9 -26 -2 -60 -6 -75 -9 -58 -9
-180 -27 -214 -30 -19 -2 -48 -6 -65 -9 -16 -3 -50 -8 -75 -12 -84 -12 -105
-16 -160 -25 -30 -5 -68 -12 -85 -14 -16 -3 -57 -9 -90 -15 -101 -16 -299 -51
-315 -56 -8 -2 -31 -7 -50 -10 -19 -3 -69 -13 -110 -22 -41 -8 -86 -17 -100
-19 -14 -2 -36 -7 -50 -10 -14 -3 -34 -8 -44 -10 -105 -20 -242 -50 -368 -80
-84 -19 -164 -37 -178 -40 -145 -29 -929 -242 -1135 -309 -44 -15 -89 -28
-100 -31 -11 -2 -128 -39 -260 -83 -416 -137 -814 -282 -1175 -427 -102 -41
-194 -79 -205 -84 -11 -5 -89 -39 -174 -75 -85 -36 -168 -72 -185 -80 -17 -7
-110 -49 -206 -93 -96 -44 -215 -99 -265 -122 -121 -57 -606 -299 -675 -337
-30 -17 -100 -54 -155 -83 -91 -48 -265 -144 -435 -240 -81 -46 -334 -195
-418 -246 -35 -22 -71 -43 -80 -49 -127 -74 -865 -555 -917 -598 -5 -4 -48
-35 -95 -68 -47 -33 -94 -67 -105 -75 -238 -171 -380 -278 -383 -286 -2 -4 -8
-8 -14 -8 -5 0 -15 -6 -22 -12 -14 -14 -44 -38 -151 -119 -38 -29 -76 -58 -85
-65 -8 -7 -73 -59 -145 -116 -71 -56 -132 -105 -135 -108 -3 -3 -70 -59 -150
-125 -80 -66 -156 -129 -170 -141 -89 -76 -380 -332 -405 -355 -16 -16 -43
-40 -60 -55 -266 -236 -773 -736 -1110 -1095 -237 -253 -601 -667 -755 -859
-24 -30 -48 -59 -54 -65 -6 -5 -33 -37 -59 -70 -26 -33 -54 -68 -62 -77 -7 -9
-55 -70 -106 -135 -51 -65 -99 -124 -106 -131 -7 -7 -13 -17 -13 -20 0 -4 -10
-18 -23 -32 -12 -14 -42 -52 -66 -85 -25 -33 -48 -61 -53 -63 -4 -2 -8 -10 -8
-17 0 -7 -3 -15 -8 -17 -30 -13 -559 -769 -802 -1148 -161 -250 -547 -899
-608 -1020 -7 -14 -23 -43 -35 -65 -13 -22 -49 -89 -82 -150 -32 -60 -67 -126
-78 -145 -27 -49 -296 -586 -345 -690 -46 -99 -88 -189 -130 -281 -51 -110
-201 -456 -238 -548 -20 -47 -41 -99 -49 -116 -31 -68 -109 -271 -255 -660
-56 -149 -207 -585 -215 -619 -1 -6 -5 -18 -8 -26 -3 -8 -28 -87 -56 -175 -27
-88 -61 -198 -76 -245 -14 -47 -28 -94 -31 -106 -2 -11 -13 -49 -24 -84 -20
-61 -157 -567 -164 -606 -2 -10 -12 -48 -21 -84 -9 -36 -18 -72 -20 -80 -2 -8
-11 -46 -20 -85 -9 -38 -18 -77 -20 -85 -42 -178 -144 -660 -150 -707 -2 -12
-6 -34 -9 -50 -15 -67 -72 -391 -81 -453 -3 -25 -8 -52 -10 -60 -2 -8 -7 -35
-10 -60 -3 -25 -8 -52 -10 -60 -2 -8 -7 -39 -10 -69 -4 -30 -8 -61 -10 -70 -4
-23 -24 -157 -31 -216 -3 -27 -8 -57 -9 -66 -3 -16 -10 -74 -20 -159 -5 -41
-10 -86 -20 -165 -2 -16 -7 -57 -10 -90 -3 -33 -8 -73 -10 -90 -2 -16 -7 -61
-10 -100 -3 -38 -7 -83 -10 -100 -2 -16 -6 -66 -10 -110 -3 -44 -8 -93 -10
-110 -2 -16 -7 -75 -10 -130 -4 -55 -8 -120 -10 -145 -4 -54 -15 -231 -20
-315 -27 -502 -27 -1542 0 -1950 2 -33 6 -112 10 -175 7 -121 10 -170 20 -310
13 -165 22 -274 30 -340 2 -19 6 -62 10 -95 3 -33 8 -82 11 -110 2 -27 7 -68
9 -90 6 -64 13 -121 50 -420 3 -22 7 -49 9 -60 2 -11 6 -40 9 -65 14 -101 18
-127 22 -150 3 -13 7 -42 10 -65 8 -57 17 -117 21 -140 2 -11 13 -74 24 -140
11 -66 22 -136 25 -155 4 -19 8 -46 10 -60 6 -35 34 -182 52 -270 8 -41 17
-86 19 -100 2 -14 7 -36 10 -50 3 -14 8 -36 10 -50 3 -14 7 -34 8 -45 2 -11
23 -103 46 -205 22 -102 43 -194 45 -205 3 -11 16 -69 31 -130 14 -60 28 -117
29 -125 6 -28 94 -364 120 -460 14 -52 32 -117 39 -145 53 -199 210 -700 319
-1020 101 -295 249 -692 342 -920 5 -11 9 -22 10 -25 2 -7 3 -9 111 -266 51
-121 104 -245 118 -275 13 -30 47 -103 74 -164 92 -207 147 -320 309 -645 157
-315 184 -366 336 -645 39 -71 80 -148 92 -170 12 -22 75 -130 140 -240 65
-110 127 -216 137 -235 18 -33 51 -86 217 -352 121 -193 545 -824 588 -873 5
-5 24 -32 43 -60 44 -65 265 -362 363 -490 140 -180 303 -386 332 -419 6 -6
40 -47 75 -91 36 -44 119 -143 185 -220 65 -77 124 -146 130 -152 5 -7 24 -28
40 -46 17 -18 59 -66 95 -107 36 -41 72 -81 80 -90 8 -9 37 -41 64 -71 135
-148 296 -319 438 -464 86 -88 6178 -6182 13537 -13543 l13381 -13382 6703
6703 c3686 3687 6743 6746 6792 6798 86 91 219 237 263 289 137 163 214 260
315 395 122 163 348 497 412 608 20 34 41 71 48 82 45 73 62 102 141 248 158
291 338 694 452 1012 50 139 148 441 159 492 2 10 18 68 34 128 32 112 96 382
106 445 3 19 12 67 20 105 7 39 16 86 19 105 3 19 8 44 10 56 2 12 7 45 11 74
4 29 9 62 11 74 2 12 7 41 10 66 3 25 7 56 9 70 2 14 7 52 10 85 4 33 9 74 11
90 2 17 6 66 9 110 4 44 8 96 11 115 9 77 18 357 18 565 0 347 -19 656 -55
911 -5 39 -11 88 -13 110 -4 39 -31 217 -41 264 -3 14 -10 52 -15 85 -131 750
-433 1597 -813 2275 -38 69 -81 145 -94 169 -39 68 -189 307 -257 406 -71 105
-236 333 -293 405 -35 44 -86 108 -101 126 -9 11 -35 43 -57 70 -70 85 -194
225 -300 339 -116 123 -21587 21598 -21711 21714 -123 115 -164 152 -239 216
-38 33 -72 63 -75 66 -3 3 -57 47 -120 98 -63 51 -122 98 -130 104 -170 137
-551 395 -785 533 -569 334 -1198 601 -1815 770 -148 41 -349 90 -440 108 -14
2 -57 11 -96 20 -91 19 -344 62 -454 76 -47 6 -98 12 -115 15 -16 2 -75 8
-130 14 -308 31 -399 36 -780 36 -372 -1 -488 -5 -730 -30 -27 -3 -77 -7 -110
-10 -33 -3 -71 -8 -85 -10 -14 -2 -61 -9 -105 -15 -44 -6 -91 -12 -105 -15
-14 -2 -61 -9 -105 -15 -44 -6 -96 -15 -115 -20 -19 -5 -52 -11 -72 -14 -21
-3 -57 -10 -80 -15 -24 -6 -59 -13 -78 -16 -19 -3 -60 -12 -90 -20 -30 -8 -66
-16 -80 -19 -57 -10 -307 -78 -460 -125 -290 -88 -640 -218 -875 -326 -476
-219 -822 -413 -1190 -668 -71 -50 -143 -100 -160 -111 -44 -31 -195 -146
-231 -175 -16 -14 -45 -37 -64 -51 -18 -14 -38 -30 -44 -35 -6 -6 -40 -35 -76
-64 -272 -224 -630 -576 -866 -851 -200 -232 -363 -444 -527 -682 -88 -129
-262 -404 -314 -498 -17 -30 -45 -80 -62 -110 -59 -103 -238 -465 -291 -585
-29 -66 -60 -138 -70 -160 -42 -95 -194 -508 -214 -580 -2 -5 -6 -17 -9 -25
-39 -103 -173 -615 -203 -780 -3 -14 -11 -57 -19 -97 -8 -39 -17 -89 -21 -110
-3 -21 -7 -45 -9 -53 -3 -8 -7 -35 -10 -60 -3 -25 -10 -70 -15 -100 -5 -30
-11 -76 -14 -102 -3 -27 -8 -67 -11 -90 -3 -24 -7 -59 -9 -78 -2 -19 -7 -60
-10 -90 -23 -199 -31 -399 -31 -760 0 -315 5 -468 20 -620 17 -176 26 -261 31
-300 3 -19 9 -67 14 -106 34 -263 128 -725 196 -959 68 -235 102 -348 140
-457 51 -148 152 -413 182 -478 11 -25 40 -90 63 -145 46 -107 216 -450 272
-550 96 -170 133 -235 163 -283 19 -29 34 -54 34 -56 0 -6 210 -326 220 -336
3 -3 25 -34 50 -70 24 -36 48 -69 52 -75 4 -5 58 -75 119 -155 320 -415 688
-805 1069 -1131 334 -286 698 -549 1045 -756 202 -120 318 -183 530 -288 418
-206 834 -367 1275 -493 96 -28 361 -96 413 -106 12 -3 101 -20 197 -40 96
-19 204 -39 240 -45 305 -47 521 -70 810 -88 247 -15 855 -7 1014 12 17 2 65
6 106 10 41 3 89 7 105 10 17 3 55 7 86 10 31 3 72 7 90 10 19 3 81 12 139 20
58 9 141 22 185 31 44 8 96 17 115 20 115 18 465 101 635 150 66 19 127 37
135 39 8 2 58 18 110 35 52 17 102 33 110 35 8 2 60 20 115 40 55 20 123 45
150 54 62 22 312 125 380 156 28 12 82 37 120 55 123 56 479 238 510 260 6 4
31 19 57 33 47 26 277 165 367 222 181 115 614 435 717 530 6 5 36 30 65 55
87 73 247 218 347 315 51 49 97 91 101 93 6 2 12072 -12059 12178 -12174 202
-219 388 -454 550 -694 80 -120 157 -242 198 -315 15 -27 49 -89 75 -136 63
-113 220 -436 220 -452 0 -7 4 -17 9 -23 31 -34 199 -511 256 -729 14 -55 30
-111 35 -125 5 -14 11 -38 14 -55 3 -16 17 -84 31 -150 15 -66 28 -129 30
-140 2 -18 19 -121 30 -185 6 -33 33 -251 39 -315 27 -263 28 -840 2 -1050 -2
-16 -7 -61 -11 -98 -3 -37 -8 -76 -10 -85 -1 -9 -6 -44 -9 -77 -8 -68 -15
-113 -21 -135 -2 -8 -7 -35 -10 -60 -3 -25 -17 -99 -31 -165 -14 -66 -27 -131
-30 -145 -14 -74 -102 -385 -146 -515 -85 -256 -148 -411 -273 -670 -72 -150
-114 -228 -205 -390 -40 -71 -171 -278 -228 -360 -84 -121 -298 -401 -332
-435 -3 -3 -39 -43 -80 -90 -97 -111 -182 -200 -305 -320 -137 -133 -150 -146
-236 -220 -107 -92 -118 -101 -206 -170 -43 -34 -87 -69 -98 -78 -106 -86
-557 -382 -583 -382 -7 0 -12 -4 -12 -9 0 -5 -8 -11 -17 -14 -10 -3 -47 -22
-83 -43 -106 -59 -327 -168 -450 -221 -97 -42 -265 -109 -320 -128 -3 -1 -12
-5 -20 -8 -45 -19 -255 -88 -330 -108 -25 -7 -49 -14 -55 -15 -74 -22 -265
-69 -355 -88 -111 -24 -142 -30 -212 -41 -18 -3 -44 -7 -58 -10 -40 -7 -81
-14 -135 -20 -27 -4 -57 -8 -65 -10 -8 -2 -46 -7 -85 -11 -38 -3 -83 -8 -100
-10 -211 -26 -940 -25 -1070 1 -11 2 -49 7 -85 10 -166 15 -281 33 -520 81
-143 28 -128 25 -240 54 -314 80 -577 170 -910 311 -113 48 -430 211 -565 290
-386 226 -739 492 -1049 789 -101 98 -17661 17659 -17703 17706 -15 16 -55 59
-88 95 -194 211 -414 467 -535 623 -8 10 -27 33 -41 50 -14 17 -61 78 -105
136 -43 58 -81 107 -84 110 -3 3 -43 57 -87 120 -45 63 -90 126 -101 140 -78
104 -311 463 -439 675 -524 872 -958 1886 -1209 2825 -40 148 -87 334 -105
415 -12 50 -22 97 -24 105 -9 38 -47 218 -51 240 -2 14 -7 36 -11 50 -3 14 -7
32 -8 40 -11 66 -17 97 -20 110 -2 8 -7 31 -10 50 -3 19 -7 46 -10 60 -3 14
-7 41 -10 60 -3 19 -10 60 -15 90 -5 30 -12 75 -15 100 -3 25 -8 56 -10 70 -2
14 -7 43 -9 65 -3 22 -10 78 -16 125 -16 125 -18 139 -25 205 -19 189 -26 266
-31 330 -2 33 -6 87 -8 120 -28 330 -29 1345 -1 1550 2 17 7 71 10 120 3 50 7
104 9 120 2 17 7 66 11 110 3 44 8 87 10 95 2 8 6 47 10 85 3 39 8 84 10 100
8 55 16 110 21 150 5 41 38 263 49 325 8 51 24 141 29 170 2 14 7 36 10 50 3
14 8 36 10 50 52 286 161 736 261 1075 62 210 180 570 195 597 6 10 10 23 10
29 0 6 6 25 14 42 7 18 42 106 76 197 154 404 390 919 596 1296 80 148 98 180
119 214 12 19 25 42 29 50 8 18 10 22 111 188 44 73 89 147 99 165 60 99 340
514 438 647 194 267 455 595 627 790 210 238 340 376 548 585 119 119 360 349
417 397 22 18 56 48 75 67 20 18 77 67 126 109 50 41 95 80 100 87 45 51 558
445 805 618 144 101 495 328 655 424 192 115 240 143 385 221 36 19 90 49 120
66 112 64 560 282 730 356 41 18 93 40 115 50 374 168 1095 418 1530 530 44
11 103 27 130 35 28 8 61 17 75 19 14 3 43 10 65 16 99 25 397 90 490 106 17
3 46 9 65 14 19 5 51 11 70 14 19 3 100 16 180 30 80 13 167 27 193 31 27 3
57 8 66 10 10 2 42 6 72 10 30 3 65 8 79 10 14 2 50 6 80 10 30 3 66 8 80 10
14 2 54 7 90 10 36 3 81 8 100 10 57 7 245 23 340 29 396 28 1254 29 1535 1
22 -2 87 -6 145 -10 57 -4 111 -8 120 -10 8 -2 49 -6 90 -9 41 -4 91 -9 110
-11 19 -3 58 -7 85 -10 50 -6 174 -21 250 -31 22 -3 47 -7 55 -9 8 -2 38 -6
65 -10 28 -3 75 -10 105 -15 30 -5 69 -12 85 -14 17 -3 68 -12 115 -20 47 -8
126 -22 175 -31 50 -9 104 -20 120 -25 17 -5 46 -11 65 -14 19 -3 85 -17 145
-31 61 -14 141 -32 179 -40 37 -8 72 -18 77 -21 5 -2 21 -7 36 -9 34 -5 282
-72 448 -121 282 -84 576 -184 835 -284 74 -29 151 -58 170 -65 229 -85 894
-397 1160 -545 41 -23 104 -58 140 -78 36 -19 82 -46 102 -59 21 -12 40 -23
42 -23 13 0 584 -356 646 -403 14 -10 97 -68 184 -129 88 -61 164 -114 170
-119 6 -5 70 -53 141 -107 162 -121 293 -225 460 -365 184 -154 442 -386 586
-527 370 -361 428 -415 634 -590 241 -206 505 -400 810 -596 101 -66 283 -174
292 -174 4 0 14 -6 22 -14 29 -25 448 -242 581 -300 36 -16 88 -39 115 -52
226 -102 617 -246 885 -324 41 -12 95 -28 120 -36 137 -41 566 -138 700 -159
19 -3 55 -9 80 -15 25 -5 68 -12 95 -16 28 -4 59 -8 70 -9 28 -4 103 -14 150
-20 22 -3 56 -7 75 -10 50 -7 124 -14 210 -21 41 -3 93 -7 115 -9 261 -23 913
-23 1100 0 17 2 70 7 119 10 49 4 96 8 105 10 9 2 45 6 81 10 36 3 76 8 90 10
14 2 50 6 80 10 30 3 78 10 105 15 28 5 70 12 95 15 62 8 423 80 528 106 72
17 284 75 492 134 134 39 541 187 658 241 29 13 55 24 57 24 11 0 315 141 430
199 510 256 1001 579 1436 942 219 183 286 245 554 507 204 199 360 345 500
467 44 39 82 72 85 75 15 17 205 173 335 276 188 149 209 165 440 335 162 119
559 382 755 499 279 168 535 307 835 455 315 156 463 222 740 335 99 40 189
76 200 81 170 75 905 312 1205 388 19 5 55 15 80 22 75 20 324 78 450 104 14
2 36 7 50 10 71 15 432 82 485 89 23 4 52 8 65 11 14 3 43 7 65 10 22 3 58 7
80 11 143 20 243 33 310 39 33 4 71 8 85 10 38 6 118 14 190 20 36 2 94 7 130
10 36 3 92 7 125 10 357 27 1201 28 1535 0 25 -2 81 -6 125 -10 88 -7 157 -13
225 -20 74 -8 131 -13 205 -21 39 -3 72 -8 75 -9 3 -2 37 -6 75 -10 39 -4 72
-9 75 -10 3 -2 35 -7 70 -10 36 -4 67 -8 70 -10 3 -2 33 -7 65 -10 33 -4 69
-9 80 -11 11 -3 58 -11 105 -20 119 -21 132 -23 156 -28 12 -2 37 -7 55 -10
54 -9 122 -23 314 -66 99 -22 191 -43 205 -46 14 -3 86 -21 160 -40 74 -20
142 -37 150 -39 23 -5 226 -64 315 -92 44 -13 87 -26 96 -28 89 -18 803 -278
964 -350 17 -8 75 -33 130 -56 274 -115 702 -324 980 -479 72 -39 153 -84 180
-100 272 -149 972 -611 1170 -772 6 -5 55 -43 110 -86 55 -42 126 -97 156
-122 31 -25 73 -58 94 -75 21 -16 43 -34 49 -40 6 -5 38 -32 71 -60 33 -27 62
-52 65 -55 3 -3 39 -34 80 -70 41 -35 91 -79 110 -96 19 -18 62 -57 94 -86
238 -213 624 -605 836 -848 41 -47 81 -91 88 -99 7 -7 46 -52 85 -100 40 -47
74 -88 78 -91 4 -4 121 -149 217 -270 47 -59 236 -312 273 -365 19 -27 39 -55
45 -62 16 -17 312 -463 364 -548 147 -241 253 -423 362 -624 73 -134 221 -431
292 -586 43 -93 82 -177 86 -185 21 -43 126 -297 192 -465 129 -325 242 -663
354 -1050 28 -99 131 -502 139 -550 3 -16 10 -46 15 -65 9 -39 60 -281 66
-320 3 -14 7 -36 9 -50 3 -14 8 -36 10 -50 5 -24 46 -272 65 -395 5 -33 12
-81 15 -106 3 -25 8 -57 10 -70 8 -51 30 -246 40 -354 4 -38 8 -86 10 -105 2
-19 7 -78 10 -130 3 -52 8 -113 10 -135 20 -171 31 -794 20 -1115 -7 -232 -21
-462 -40 -660 -3 -25 -7 -72 -10 -105 -6 -77 -16 -165 -21 -188 -2 -10 -6 -46
-9 -80 -3 -34 -8 -74 -11 -88 -2 -15 -6 -47 -9 -70 -5 -42 -14 -107 -20 -139
-2 -8 -8 -51 -15 -95 -7 -44 -14 -89 -16 -100 -2 -11 -13 -72 -24 -135 -12
-63 -23 -124 -25 -135 -2 -11 -9 -45 -14 -75 -13 -64 -13 -65 -41 -190 -11
-52 -23 -106 -26 -120 -3 -14 -10 -43 -16 -65 -5 -22 -12 -49 -14 -60 -17 -88
-147 -561 -201 -730 -33 -103 -141 -425 -150 -445 -3 -8 -7 -17 -7 -20 -4 -18
-90 -247 -96 -255 -4 -5 -13 -28 -20 -50 -16 -49 -201 -483 -265 -620 -111
-239 -384 -762 -455 -875 -6 -8 -37 -61 -70 -117 -216 -369 -564 -882 -801
-1178 -9 -11 -65 -81 -125 -155 -108 -135 -184 -226 -259 -310 -22 -25 -57
-66 -78 -90 -78 -90 -237 -261 -378 -406 l-98 -100 -1330 1330 c-732 732
-1333 1334 -1336 1337 -3 3 32 43 76 90 80 83 210 224 246 265 10 12 38 45 63
74 25 29 50 58 55 64 64 68 310 391 421 551 186 271 444 695 444 731 0 7 4 14
9 16 17 6 214 414 303 628 68 163 163 419 211 565 76 232 178 611 202 747 3
17 7 34 9 37 2 3 16 70 31 148 14 79 28 151 30 160 2 16 20 132 30 203 2 14 6
43 9 65 3 22 8 63 11 90 4 28 8 66 10 85 3 19 7 64 10 100 4 36 8 81 10 100
28 269 28 976 0 1270 -10 111 -24 236 -31 290 -3 25 -7 61 -10 80 -32 264
-141 796 -208 1020 -8 25 -24 79 -36 120 -26 90 -136 427 -149 455 -5 11 -32
81 -61 155 -28 74 -56 144 -60 155 -5 11 -37 83 -70 160 -78 179 -274 559
-380 740 -266 453 -605 913 -944 1284 -170 186 -478 481 -727 696 -46 39 -313
250 -339 267 -14 9 -35 25 -47 37 -12 12 -26 21 -30 21 -4 0 -19 10 -33 21
-94 75 -500 340 -643 418 -28 16 -95 52 -147 81 -95 53 -375 194 -440 223 -19
9 -60 27 -90 40 -231 103 -678 274 -760 292 -8 2 -43 13 -78 24 -34 12 -86 28
-115 36 -28 8 -86 24 -127 35 -41 12 -84 23 -94 25 -11 3 -75 18 -143 35 -131
32 -334 76 -399 85 -21 3 -45 8 -52 10 -14 5 -242 40 -327 50 -78 9 -128 16
-155 20 -14 2 -61 6 -105 10 -44 3 -98 8 -120 10 -263 27 -1042 27 -1230 0
-16 -2 -61 -7 -100 -10 -90 -7 -135 -12 -275 -31 -168 -22 -249 -34 -323 -49
-15 -2 -53 -9 -85 -15 -496 -88 -1191 -302 -1627 -501 -27 -13 -52 -24 -55
-24 -28 -6 -416 -198 -565 -280 -77 -43 -300 -174 -355 -210 -108 -70 -303
-199 -355 -236 -111 -78 -376 -278 -395 -299 -3 -3 -18 -16 -35 -29 -29 -22
-122 -101 -155 -131 -9 -8 -50 -44 -90 -80 -81 -71 -109 -97 -245 -230 -214
-209 -369 -377 -554 -600 -130 -158 -113 -137 -233 -298 -204 -275 -402 -578
-538 -827 -18 -33 -45 -82 -60 -110 -201 -364 -411 -868 -559 -1335 -26 -85
-115 -406 -126 -456 -4 -22 -26 -120 -54 -246 -11 -48 -23 -106 -26 -130 -4
-24 -10 -61 -15 -83 -5 -22 -11 -60 -15 -85 -3 -25 -8 -58 -11 -73 -3 -16 -7
-38 -9 -50 -1 -12 -5 -47 -9 -77 -4 -30 -9 -62 -11 -70 -2 -8 -7 -49 -10 -90
-4 -41 -9 -83 -11 -93 -2 -10 -6 -57 -9 -104 -4 -47 -8 -93 -10 -102 -23 -120
-24 -920 -1 -1141 2 -19 7 -73 11 -120 3 -47 8 -98 10 -115 2 -16 6 -57 10
-89 3 -32 7 -62 9 -65 2 -3 7 -35 10 -71 13 -123 44 -304 98 -560 16 -80 31
-152 33 -160 2 -8 13 -51 24 -95 12 -44 24 -91 27 -105 7 -37 60 -217 100
-340 14 -41 27 -84 29 -95 13 -56 162 -452 215 -570 14 -33 42 -96 61 -140 72
-168 250 -516 363 -710 107 -184 316 -509 337 -525 3 -3 11 -15 18 -27 16 -32
221 -302 320 -423 91 -111 205 -243 303 -350 63 -68 8137 -8148 8325 -8330
121 -118 275 -258 373 -340 36 -30 67 -57 70 -60 3 -3 68 -55 145 -115 739
-581 1567 -1012 2479 -1290 49 -15 94 -28 100 -29 6 -2 31 -9 56 -16 25 -7 50
-14 55 -16 6 -1 84 -20 175 -43 148 -36 408 -91 500 -105 19 -3 44 -7 55 -10
11 -2 42 -7 68 -10 27 -4 56 -9 65 -11 10 -1 44 -6 77 -10 33 -4 71 -9 85 -11
14 -2 50 -6 80 -10 30 -3 69 -7 85 -10 17 -2 64 -6 105 -10 41 -3 91 -7 110
-9 238 -24 1014 -24 1139 0 9 1 59 6 111 10 52 4 109 9 125 11 17 2 55 6 85 9
30 3 64 7 75 10 11 2 43 7 71 10 28 3 61 8 75 10 13 3 44 8 69 11 76 10 309
53 430 80 190 43 173 39 250 59 36 9 70 18 75 20 62 14 330 92 365 106 14 5
34 11 45 14 19 4 105 34 340 119 246 90 678 290 970 449 217 119 507 302 730
461 60 43 122 88 136 100 15 12 39 30 55 41 15 11 55 43 89 70 34 28 74 59 89
70 16 11 33 25 40 31 6 6 63 55 126 108 263 225 627 587 1020 1016 47 51 92
101 100 110 22 25 143 161 155 174 6 6 50 58 100 116 49 58 92 107 95 110 3 3
25 30 50 60 25 30 52 62 60 70 8 9 29 34 47 55 17 22 76 95 130 161 54 67 110
137 124 155 15 19 53 68 86 109 85 107 325 427 414 550 236 326 564 812 672
995 7 11 15 22 18 25 3 3 25 37 48 75 49 82 53 88 109 177 23 38 42 70 42 73
0 2 15 28 34 57 32 52 190 324 256 443 18 33 41 74 50 90 9 17 35 64 57 105
23 41 64 118 93 170 87 159 370 732 472 955 113 248 125 274 214 483 8 17 20
47 28 65 36 82 100 240 156 384 34 87 68 172 75 188 7 17 52 138 99 270 48
132 91 249 96 260 5 11 13 36 19 55 5 19 35 109 66 200 52 153 127 386 161
505 8 28 16 55 18 60 2 6 6 17 9 25 18 46 204 731 242 890 4 19 46 202 49 215
1 6 5 19 9 30 3 11 8 31 11 45 3 14 26 122 51 240 26 118 48 227 50 243 2 15
6 31 9 35 2 4 7 28 11 52 3 25 10 63 15 85 5 22 12 56 15 75 6 32 39 223 50
280 12 66 47 278 49 300 2 14 6 43 10 65 4 22 9 58 12 80 2 22 9 67 14 100 5
33 12 83 16 110 3 28 7 57 9 65 1 8 6 44 10 80 3 36 8 76 10 90 2 14 9 66 15
115 20 170 20 173 36 330 3 39 8 81 9 95 2 14 6 61 9 105 4 44 9 94 11 110 2
17 7 77 11 135 4 58 8 121 9 140 1 19 6 94 10 165 4 72 8 146 10 165 26 281
26 1633 0 1930 -2 25 -7 104 -10 175 -4 72 -8 148 -10 170 -5 72 -16 219 -20
270 -10 111 -16 182 -20 215 -2 19 -6 62 -10 95 -9 95 -16 167 -21 205 -2 19
-6 60 -9 90 -3 30 -8 66 -10 80 -3 14 -7 48 -10 75 -7 65 -15 134 -20 165 -2
14 -13 93 -25 175 -30 211 -28 198 -66 430 -45 270 -44 263 -54 310 -5 22 -11
58 -15 80 -3 22 -17 96 -31 165 -14 69 -28 136 -30 150 -11 61 -52 246 -111
500 -35 151 -66 282 -68 290 -1 8 -20 77 -40 154 -20 76 -38 145 -40 155 -8
39 -120 430 -155 546 -68 220 -142 451 -186 580 -30 88 -56 167 -58 175 -6 23
-166 461 -181 495 -7 17 -16 41 -20 55 -7 23 -121 309 -208 520 -168 410 -492
1099 -714 1520 -80 151 -134 249 -188 345 -30 54 -55 100 -55 103 0 3 -18 33
-40 68 -22 35 -40 66 -40 68 0 2 -27 50 -60 106 -33 56 -60 103 -60 106 0 2
-17 30 -37 61 -21 32 -46 73 -56 92 -23 42 -239 387 -317 506 -33 50 -73 113
-90 140 -17 28 -50 77 -75 110 -24 33 -44 65 -44 72 -1 6 -4 13 -9 15 -4 2
-36 46 -71 98 -126 185 -476 667 -575 791 -12 15 -30 39 -41 55 -46 64 -525
655 -555 684 -3 3 -30 34 -60 70 -30 36 -72 85 -95 110 -43 49 -158 179 -188
214 -10 12 -39 44 -65 71 -25 28 -71 77 -101 110 -288 313 -891 919 -1070
1074 -13 11 -65 58 -115 104 -176 161 -244 222 -431 382 -198 171 -514 432
-606 500 -32 24 -248 191 -269 208 -25 20 -278 208 -390 289 -409 296 -1129
765 -1490 970 -25 14 -90 52 -145 83 -55 32 -116 67 -135 78 -76 43 -193 107
-196 107 -3 0 -21 10 -42 23 -64 40 -760 399 -790 407 -4 1 -23 10 -42 20 -28
14 -275 129 -495 230 -22 10 -105 46 -185 80 -80 34 -163 70 -185 80 -149 66
-650 260 -935 362 -211 76 -708 242 -774 259 -23 5 -48 13 -56 16 -8 4 -17 7
-20 8 -3 0 -36 10 -75 22 -134 41 -451 131 -590 167 -77 20 -156 41 -175 46
-168 48 -722 172 -1145 256 -10 2 -37 6 -60 9 -22 4 -56 10 -75 15 -19 5 -53
11 -75 15 -37 5 -82 13 -130 21 -55 10 -195 34 -230 39 -22 4 -67 10 -100 15
-33 5 -78 12 -100 15 -22 4 -51 8 -65 10 -14 3 -50 7 -80 11 -30 3 -62 8 -72
9 -22 5 -121 18 -223 30 -27 3 -64 8 -82 10 -52 7 -214 25 -366 40 -28 3 -72
7 -97 10 -25 2 -79 7 -120 11 -41 3 -91 7 -110 9 -19 2 -73 6 -120 10 -47 3
-110 8 -140 10 -30 2 -107 7 -170 11 -63 4 -133 8 -155 9 -413 27 -1557 27
-1958 0 -29 -2 -104 -6 -167 -10 -125 -6 -221 -13 -420 -30 -25 -2 -79 -6
-120 -10 -41 -3 -118 -10 -170 -16 -52 -5 -115 -12 -140 -14 -73 -8 -142 -15
-185 -20 -22 -3 -58 -7 -80 -10 -266 -32 -284 -35 -315 -40 -14 -3 -42 -7 -64
-10 -52 -6 -108 -14 -186 -26 -36 -6 -81 -12 -100 -15 -19 -2 -57 -9 -85 -14
-27 -5 -68 -12 -90 -16 -39 -5 -64 -9 -115 -18 -29 -6 -131 -23 -176 -31 -17
-2 -100 -18 -185 -35 -156 -30 -184 -35 -229 -45 -14 -3 -36 -8 -50 -10 -14
-3 -47 -10 -75 -16 -27 -6 -61 -13 -75 -15 -67 -13 -469 -108 -590 -139 -69
-17 -233 -58 -265 -66 -69 -17 -494 -139 -630 -181 -71 -22 -137 -41 -145 -43
-25 -6 -453 -145 -475 -155 -11 -5 -54 -20 -95 -33 -107 -36 -222 -76 -245
-87 -11 -4 -96 -36 -190 -71 -317 -116 -849 -335 -1190 -491 -71 -33 -146 -67
-165 -76 -98 -44 -694 -341 -825 -411 -82 -44 -175 -93 -205 -109 -177 -92
-645 -365 -915 -532 -331 -205 -731 -471 -1016 -675 -47 -34 -101 -73 -119
-86 -76 -53 -559 -417 -570 -429 -3 -3 -48 -39 -100 -80 -148 -117 -411 -333
-515 -425 -13 -11 -42 -36 -65 -54 -24 -19 -48 -40 -54 -46 -6 -6 -49 -44 -96
-85 -47 -41 -90 -79 -96 -85 -6 -5 -54 -48 -105 -95 -158 -143 -218 -199 -489
-460 -106 -102 -196 -185 -201 -185 -4 0 -70 61 -146 135 -374 363 -903 842
-1111 1005 -14 11 -33 27 -42 35 -8 8 -49 42 -90 75 -78 63 -115 93 -134 110
-6 6 -40 32 -76 60 -36 27 -67 52 -70 55 -17 20 -591 453 -680 513 -35 23
-163 115 -175 125 -5 4 -66 46 -135 92 -69 47 -127 87 -130 90 -9 9 -343 227
-468 306 -34 21 -93 58 -130 81 -37 24 -155 95 -262 159 -107 64 -207 125
-222 135 -15 11 -29 19 -32 19 -2 0 -62 33 -133 73 -401 230 -1029 552 -1438
737 -88 40 -198 90 -243 111 -46 22 -89 39 -96 39 -7 0 -16 4 -22 9 -16 14
-518 222 -704 291 -47 17 -94 36 -105 40 -11 5 -47 19 -80 30 -33 12 -69 25
-80 30 -72 30 -528 189 -585 205 -14 3 -34 10 -45 15 -68 31 -733 229 -1060
316 -98 26 -514 130 -555 138 -52 11 -257 57 -295 67 -22 5 -49 11 -60 13 -11
2 -99 20 -195 39 -96 20 -239 48 -317 62 -79 14 -153 28 -165 30 -12 3 -38 7
-58 10 -20 3 -45 7 -55 9 -11 2 -40 7 -65 11 -25 4 -54 9 -65 11 -11 3 -33 6
-50 8 -16 3 -59 9 -95 15 -36 5 -83 12 -105 16 -22 3 -51 7 -65 10 -14 2 -47
6 -75 10 -27 3 -75 10 -105 15 -30 5 -80 11 -111 15 -31 3 -65 7 -75 9 -11 2
-48 7 -84 10 -36 4 -76 8 -90 10 -14 3 -56 7 -93 11 -37 3 -76 8 -85 10 -9 1
-53 6 -97 10 -91 8 -148 13 -220 20 -27 2 -81 7 -120 10 -38 3 -92 7 -120 10
-27 2 -95 7 -150 10 -55 4 -125 8 -155 10 -157 10 -276 16 -380 21 -124 6
-1296 14 -1302 9z"/>
</g>
</svg>
