<?xml version="1.0" encoding="utf-8"?>
<!-- Generator: Adobe Illustrator 26.2.1, SVG Export Plug-In . SVG Version: 6.00 Build 0)  -->
<svg version="1.1" id="Layer_1" xmlns="http://www.w3.org/2000/svg" xmlns:xlink="http://www.w3.org/1999/xlink" x="0px" y="0px"
	 viewBox="0 0 48 48" style="enable-background:new 0 0 48 48;" xml:space="preserve">
<path d="M5.6,46.3c-1.5,0-2.7-0.5-3.8-1.6c-1-1-1.6-2.3-1.6-3.8V4.5c0-0.8,0.2-1.3,0.6-1.4c0.4-0.2,0.9,0,1.5,0.5l2,2l2.1-2.1
	C6.6,3.2,6.9,3,7.3,2.9c0.3-0.1,0.7-0.2,1-0.2c0.3,0,0.7,0.1,1,0.2C9.6,3,9.9,3.2,10.1,3.5l2.1,2.1l2.1-2.1c0.3-0.3,0.6-0.5,0.9-0.6
	c0.3-0.1,0.6-0.2,1-0.2c0.3,0,0.7,0.1,1,0.2c0.3,0.1,0.6,0.3,0.9,0.6l2.1,2.1l1.9-2C22.4,3.3,22.7,3,23,2.9c0.3-0.1,0.7-0.2,1-0.2
	s0.7,0.1,1,0.2c0.3,0.1,0.6,0.4,0.9,0.7l2,2L30,3.5c0.3-0.3,0.6-0.5,0.9-0.6c0.3-0.1,0.6-0.2,1-0.2c0.3,0,0.7,0.1,1,0.2
	c0.3,0.1,0.6,0.3,0.9,0.6l2.1,2.1l2.1-2.1c0.3-0.3,0.6-0.5,0.9-0.6c0.3-0.1,0.7-0.2,1-0.2c0.3,0,0.7,0.1,1,0.2
	c0.3,0.1,0.6,0.3,0.9,0.6l2.1,2.1l2.1-2c0.5-0.5,1-0.7,1.4-0.5c0.4,0.2,0.6,0.6,0.6,1.4V41c0,1.5-0.5,2.7-1.6,3.8
	c-1,1-2.3,1.6-3.8,1.6H5.6z M5.6,41h16.1V25H5.6V41L5.6,41L5.6,41z M26.3,41h16.1l0,0l0,0v-5.6H26.3V41z M26.3,30.6h16.1V25H26.3
	V30.6z M5.6,20.3h36.8v-5.5H5.6V20.3z"/>
</svg>
