<?xml version="1.0" encoding="utf-8"?>
<!-- Generator: Adobe Illustrator 26.2.1, SVG Export Plug-In . SVG Version: 6.00 Build 0)  -->
<svg version="1.1" id="Layer_1" xmlns="http://www.w3.org/2000/svg" xmlns:xlink="http://www.w3.org/1999/xlink" x="0px" y="0px"
	 viewBox="0 0 48 48" style="enable-background:new 0 0 48 48;" xml:space="preserve">
<path d="M8,48c-1.7,0-3.1-0.6-4.2-1.8C2.6,45.1,2,43.7,2,42V18c0-0.9,0.2-1.8,0.6-2.7c0.4-0.8,1-1.6,1.8-2.1l15.9-12
	c0.6-0.4,1.1-0.7,1.8-0.9C22.8,0.1,23.4,0,24,0c0.6,0,1.3,0.1,1.9,0.3c0.6,0.2,1.2,0.5,1.8,0.9l15.9,12c0.8,0.6,1.4,1.3,1.8,2.1
	C45.8,16.2,46,17,46,18v24c0,1.7-0.6,3.1-1.8,4.2C43.1,47.4,41.7,48,40,48H29.5V28.2h-11V48H8z"/>
</svg>
