<?xml version="1.0" encoding="utf-8"?>
<!-- Generator: Adobe Illustrator 26.2.1, SVG Export Plug-In . SVG Version: 6.00 Build 0)  -->
<svg version="1.1" id="Layer_1" xmlns="http://www.w3.org/2000/svg" xmlns:xlink="http://www.w3.org/1999/xlink" x="0px" y="0px"
	 viewBox="0 0 48 48" style="enable-background:new 0 0 48 48;" xml:space="preserve">
<path d="M24,23.3c-3.4,0-6.2-1.1-8.4-3.3c-2.2-2.2-3.3-5-3.3-8.4s1.1-6.2,3.3-8.4S20.6,0,24,0c3.4,0,6.2,1.1,8.4,3.3s3.3,5,3.3,8.4
	s-1.1,6.2-3.3,8.4C30.2,22.2,27.4,23.3,24,23.3z M1,48v-8c0-2,0.5-3.7,1.5-5.2s2.3-2.6,3.9-3.4c3.1-1.4,6-2.4,8.9-3.1
	c2.9-0.7,5.7-1,8.6-1c2.9,0,5.8,0.4,8.6,1.1c2.8,0.7,5.8,1.7,8.8,3.1c1.7,0.7,3,1.8,4.1,3.3c1,1.5,1.5,3.2,1.5,5.2v8H1z"/>
</svg>
