<?xml version="1.0" encoding="utf-8"?>
<!-- Generator: Adobe Illustrator 26.2.1, SVG Export Plug-In . SVG Version: 6.00 Build 0)  -->
<svg version="1.1" xmlns="http://www.w3.org/2000/svg" xmlns:xlink="http://www.w3.org/1999/xlink" x="0px" y="0px"
	 viewBox="0 0 48 48" style="enable-background:new 0 0 48 48;" xml:space="preserve">
<style type="text/css">
	.st0{display:none;}
	.st1{display:inline;}
	.st2{display:inline;fill:#FFFFFF;}
	.st3{fill-rule:evenodd;clip-rule:evenodd;}
</style>
<g id="Layer_3" class="st0">
	<path class="st1" d="M38.1,10.4c-2.3-6.8-9.6-11.2-16.7-10c-11.2,2-16,15-8.9,24c2,2.6,3,4.3,3.8,6.8l0.3,0.9
		c0.5,3.4,0.6,5.4,0.6,6.3c0,0.1,0,0.1,0,0.1v0.5v1.5c0,2.4,0.1,2.7,1,2.7c0.2,0,0.3,0.1,0.5,0.6c1.7,5.2,9,5.2,10.6,0
		c0.2-0.6,0.2-0.6,0.5-0.6c0.9,0,1-0.3,1-2.7v-1.3v-0.6c0,0,0,0,0,0c0-3.3,0.3-5.2,0.7-6.7l0.3-0.8c0.7-2.2,1.9-4.3,3.6-6.5
		C38.8,20.2,39.7,15.3,38.1,10.4z"/>
	<path class="st2" d="M21.2,38.3c-0.3-0.3-0.6-0.7-0.8-1.2c-0.2-0.5-0.3-0.9-0.3-1.4l0-11.6c-0.5-0.2-0.9-0.4-1.3-0.7
		c-0.4-0.3-0.8-0.6-1.2-1c-1.7-1.7-2.6-3.7-2.6-6.2c0-2.4,0.9-4.5,2.6-6.3c0.5-0.6,1.2-1.1,1.9-1.5c0.8-0.4,1.5-0.8,2.2-1l0,7.3
		l4.3,0l0-7.5c0.7,0.1,1.4,0.4,2.2,0.8c0.8,0.4,1.5,0.8,2,1.3c1.8,1.7,2.6,3.8,2.6,6.3s-0.9,4.6-2.7,6.5c-0.4,0.4-0.7,0.7-1.1,1
		c-0.4,0.3-0.9,0.6-1.3,0.9l0,11.4c0,0.5-0.1,1-0.3,1.5c-0.2,0.5-0.5,0.9-0.8,1.3c-0.4,0.4-0.8,0.7-1.3,0.9c-0.5,0.2-1,0.3-1.5,0.3
		c-0.5,0-1-0.1-1.5-0.3S21.5,38.7,21.2,38.3z"/>
	<rect x="19.2" y="34" class="st1" width="10.2" height="6.6"/>
	<rect x="12.1" y="33" transform="matrix(0.9817 -0.1905 0.1905 0.9817 -6.088 5.1383)" class="st2" width="23.1" height="2.5"/>
	<rect x="12.4" y="37.9" transform="matrix(0.9817 -0.1905 0.1905 0.9817 -7.0205 5.2905)" class="st2" width="23.1" height="2.5"/>
</g>
<g id="Layer_5">
	<g id="svgg">
		<path id="path0" class="st3" d="M21.7,0.2C7.8,2,1.6,18.2,10.6,29.1c2.3,2.7,3.4,5,3.7,7.6l0.1,0.8H24h9.6l0.1-0.8
			c0.2-2.1,1.3-4.6,2.8-6.5c2.2-2.8,2.6-3.4,3.3-4.7C45.9,12.9,35.6-1.7,21.7,0.2 M14.4,42.5c0.1,2.8,0.5,3.8,2.1,4.8
			c1.1,0.7,1.4,0.8,7.9,0.7l5.8,0l0.7-0.3c2-0.9,2.7-2.4,2.7-5.7l0-1.4H24h-9.6L14.4,42.5"/>
	</g>
</g>
<g id="Layer_4" class="st0">
	<path class="st1" d="M38.1,10.4c-2.3-6.8-9.6-11.2-16.7-10c-11.2,2-16,15-8.9,24c2,2.6,3,4.3,3.8,6.8l0.3,0.9
		c0.5,3.4,0.6,5.4,0.6,6.3c0,0.1,0,0.1,0,0.1v0.5v1.5c0,2.4,0.1,2.7,1,2.7c0.2,0,0.3,0.1,0.5,0.6c1.7,5.2,9,5.2,10.6,0
		c0.2-0.6,0.2-0.6,0.5-0.6c0.9,0,1-0.3,1-2.7v-1.3v-0.6c0,0,0,0,0,0c0-3.3,0.3-5.2,0.7-6.7l0.3-0.8c0.7-2.2,1.9-4.3,3.6-6.5
		C38.8,20.2,39.7,15.3,38.1,10.4z"/>
</g>
<g id="Layer_3_copy" class="st0">
	<g class="st1">
		<path d="M38.1,10.4c-2.3-6.8-9.6-11.2-16.7-10c-11.2,2-16,15-8.9,24c2,2.6,3,4.3,3.8,6.8l0.3,0.9c0.1,0.8,0.2,1.4,0.3,2.1l3.3-0.6
			l0-9.5c-0.5-0.2-0.9-0.4-1.3-0.7s-0.8-0.6-1.2-1c-1.7-1.7-2.6-3.7-2.6-6.2c0-2.4,0.9-4.5,2.6-6.3c0.5-0.6,1.2-1.1,1.9-1.5
			c0.8-0.4,1.5-0.8,2.2-1l0,7.3l4.3,0l0-7.5c0.7,0.1,1.4,0.4,2.2,0.8c0.8,0.4,1.5,0.8,2,1.3c1.8,1.7,2.6,3.8,2.6,6.3
			c0,2.5-0.9,4.6-2.7,6.5c-0.4,0.4-0.7,0.7-1.1,1s-0.9,0.6-1.3,0.9l0,8.1l3.8-0.7l0.1-0.3c0.7-2.2,1.9-4.3,3.6-6.5
			C38.8,20.2,39.7,15.3,38.1,10.4z"/>
		<path d="M17.2,41.7c0.1,1.3,0.3,1.5,1,1.5c0.2,0,0.3,0.1,0.5,0.6c1.7,5.2,9,5.2,10.6,0c0.2-0.6,0.2-0.6,0.5-0.6c0.9,0,1-0.3,1-2.7
			v-1.3v-0.1L17.2,41.7z"/>
		<path d="M17.1,38.6v0.5v0.2l13.7-2.7c0-1,0.1-1.8,0.2-2.5l-13.9,2.7c0.1,0.8,0.1,1.3,0.1,1.7C17.1,38.6,17.1,38.6,17.1,38.6z"/>
	</g>
</g>
</svg>
